<svg width="245" height="278" viewBox="0 0 245 278" fill="none" xmlns="http://www.w3.org/2000/svg">
<path fill-rule="evenodd" clip-rule="evenodd" d="M110.477 4.217C112.622 5.59396 113.867 6.88698 114.499 7.72263V70.4447C109.541 68.3832 103.513 68.0515 96.5504 70.1397C92.5829 71.3297 90.3312 75.5107 91.5212 79.4782C92.7111 83.4457 96.8921 85.6974 100.86 84.5074C106.213 82.9019 108.806 84.0927 110.181 85.1203C111.966 86.454 113.199 88.7016 113.853 90.7404C114.02 91.2597 114.238 91.7483 114.499 92.2023V204.535C108.372 199.542 100.156 195.849 89.4881 194.856C85.3638 194.472 81.7091 197.504 81.325 201.628C80.941 205.752 83.973 209.407 88.0973 209.791C98.8883 210.796 105.26 215.392 109.062 220.311C113.062 225.485 114.439 231.325 114.496 234.58L114.497 234.625L114.497 234.647C114.498 234.667 114.499 234.687 114.499 234.708V249.686C109.616 260.007 101.031 271.346 90.7129 275.781C85.6432 277.96 80.0775 278.527 73.8253 276.409C67.6766 274.327 60.3346 269.461 52.066 259.854C51.0795 257.572 48.9805 255.829 46.3429 255.415C34.0964 253.489 27.747 246.993 24.3412 239.571C20.7383 231.719 20.3639 222.529 21.2425 216.28C21.8591 211.893 19.0739 208.082 15.2662 206.911C11.6696 205.804 3.15204 200.732 1.03767 187.629C-0.440302 178.47 0.870974 172.476 2.48223 168.881C15.5105 178.951 29.7035 180.091 37.1446 178.695C41.2157 177.931 43.8965 174.011 43.1324 169.94C42.3683 165.869 38.4486 163.188 34.3776 163.952C29.6652 164.837 15.1975 163.919 4.06302 149.283C-0.54239 143.229 -0.815103 136.602 1.17536 129.998C3.23174 123.175 7.58731 117.007 11.0376 113.424C13.0431 111.341 13.8687 108.378 13.182 105.528C11.485 98.4835 10.9425 88.3283 14.0643 80.0424C15.5776 76.026 17.8912 72.5913 21.2417 70.0108C24.5773 67.4419 29.3705 65.3873 36.3894 64.7972C50.2691 63.6304 57.8115 69.0215 62.2578 75.7297C67.0821 83.0081 68.6245 92.5278 68.4104 99.0786C68.2751 103.219 71.5215 106.684 75.6615 106.82C79.8014 106.955 83.2671 103.708 83.4024 99.5686C83.684 90.9528 81.8065 78.0725 74.7607 67.4425C67.7961 56.9351 56.119 49.2217 38.6614 49.6562C38.6359 49.5916 38.6049 49.5091 38.5692 49.4071C38.3831 48.8746 38.1559 48.0453 37.9756 46.9707C37.6135 44.8124 37.5014 42.0301 38.0376 39.1215C38.3842 37.2414 39.0059 35.2455 40.0865 33.2741C40.7441 32.3074 41.4011 31.3413 42.0565 30.3746C44.2645 27.7041 47.5449 25.2176 52.3978 23.2976C59.6977 20.4096 65.1639 22.1304 69.5579 25.5152C74.3374 29.1968 77.7491 34.8961 79.3038 38.9876C80.775 42.8596 85.1066 44.8058 88.9787 43.3345C92.8507 41.8632 94.7969 37.5316 93.3256 33.6596C91.0805 27.7511 86.2649 19.4503 78.7117 13.632C76.8811 12.2219 74.8893 10.9626 72.7495 9.92223C82.3987 1.05573 91.8189 -0.680024 99.1054 0.206855C103.628 0.757259 107.56 2.34384 110.477 4.217ZM129.499 249.686C134.383 260.006 142.968 271.346 153.287 275.781C158.358 277.961 163.924 278.527 170.177 276.409C176.326 274.327 183.669 269.461 191.938 259.853C192.925 257.571 195.024 255.829 197.661 255.415C209.909 253.489 216.259 246.992 219.665 239.57C223.268 231.719 223.642 222.529 222.763 216.28C222.147 211.893 224.932 208.082 228.74 206.911C232.337 205.804 240.855 200.732 242.97 187.629C244.448 178.469 243.136 172.476 241.525 168.88C228.495 178.951 214.301 180.091 206.86 178.695C202.789 177.931 200.108 174.011 200.872 169.94C201.636 165.869 205.556 163.188 209.627 163.952C214.34 164.837 228.809 163.919 239.944 149.283C244.55 143.229 244.822 136.602 242.832 129.998C240.775 123.176 236.419 117.007 232.969 113.424C230.963 111.341 230.138 108.378 230.824 105.527C232.521 98.4834 233.064 88.3283 229.942 80.0425C228.429 76.0262 226.115 72.5915 222.764 70.011C219.428 67.442 214.635 65.3873 207.615 64.7972C193.734 63.6303 186.191 69.0217 181.744 75.7299C176.92 83.0082 175.377 92.5278 175.591 99.0786C175.726 103.219 172.48 106.684 168.34 106.82C164.2 106.955 160.734 103.708 160.599 99.5686C160.318 90.9527 162.195 78.0723 169.241 67.4423C176.207 56.9347 187.885 49.2215 205.343 49.6563C205.357 49.6223 205.372 49.5834 205.388 49.5394C205.403 49.4995 205.419 49.4554 205.436 49.4069C205.622 48.8745 205.849 48.0452 206.029 46.9706C206.391 44.8123 206.503 42.0301 205.967 39.1216C204.965 33.6833 201.66 27.2749 191.606 23.2977C184.305 20.4095 178.838 22.1304 174.444 25.5153C169.664 29.197 166.252 34.8963 164.697 38.9877C163.226 42.8597 158.894 44.8058 155.022 43.3345C151.15 41.8631 149.204 37.5314 150.676 33.6594C152.921 27.7509 157.737 19.4501 165.29 13.6318C167.121 12.2218 169.113 10.9626 171.253 9.92223C161.603 1.05581 152.182 -0.680054 144.895 0.206861C140.372 0.757285 136.439 2.34391 133.522 4.21712C131.377 5.59409 130.132 6.88711 129.499 7.72277V70.4449C134.458 68.3832 140.486 68.0514 147.45 70.1397C151.417 71.3296 153.669 75.5105 152.479 79.4781C151.289 83.4456 147.108 85.6974 143.141 84.5075C137.787 82.9019 135.193 84.0927 133.818 85.1205C132.032 86.4542 130.799 88.7018 130.145 90.7405C129.979 91.2598 129.761 91.7484 129.499 92.2024V204.536C135.627 199.542 143.844 195.849 154.513 194.856C158.637 194.472 162.292 197.504 162.676 201.628C163.06 205.752 160.028 209.407 155.904 209.791C145.111 210.796 138.739 215.392 134.936 220.311C130.937 225.485 129.559 231.325 129.503 234.58C129.502 234.623 129.501 234.666 129.499 234.709V249.686ZM211.669 92.1001C212.374 88.0184 209.636 84.138 205.555 83.433C201.473 82.728 197.592 85.4653 196.887 89.547C194.746 101.942 191.12 109.67 187.234 114.362C183.475 118.902 179.206 120.941 174.769 121.574C165.234 122.933 153.809 117.86 145.855 111.843C142.552 109.343 137.848 109.995 135.349 113.298C132.85 116.602 133.501 121.305 136.805 123.805C142.8 128.34 151.436 133.233 160.965 135.504C162.124 145.824 170.495 158.34 191.776 164.526C195.753 165.682 199.915 163.394 201.071 159.417C202.227 155.439 199.94 151.278 195.963 150.122C182.844 146.309 178.183 140.523 176.607 136.462L176.69 136.451L176.793 136.437L176.886 136.423C184.898 135.281 192.574 131.433 198.788 123.929C204.875 116.577 209.25 106.105 211.669 92.1001ZM147.744 175.595C148.146 171.472 151.814 168.457 155.937 168.859C176.017 170.819 188.802 178.488 196.047 188.713C200.86 195.504 202.864 202.914 203.274 209.486C203.948 209.427 204.63 209.378 205.321 209.337C209.456 209.091 213.006 212.244 213.252 216.379C213.497 220.514 210.344 224.065 206.209 224.31C191.342 225.193 183.487 230.869 179.251 236.721C174.781 242.896 173.707 250.159 174.083 254.706C174.424 258.834 171.354 262.457 167.226 262.798C163.098 263.139 159.475 260.069 159.134 255.941C158.518 248.488 160.17 237.501 167.1 227.926C171.831 221.39 178.766 215.867 188.356 212.548C188.435 207.88 187.288 202.295 183.809 197.386C179.63 191.489 171.276 185.428 154.479 183.788C150.357 183.386 147.341 179.717 147.744 175.595ZM38.4497 83.433C34.368 84.138 31.6306 88.0183 32.3356 92.1001C34.7544 106.105 39.1285 116.577 45.2155 123.929C51.4287 131.432 59.1046 135.281 67.1161 136.423C67.1644 136.43 67.2128 136.437 67.2611 136.444L67.3944 136.462C65.819 140.523 61.1579 146.309 48.0407 150.122C44.0632 151.278 41.7761 155.44 42.9323 159.417C44.0884 163.395 48.2501 165.682 52.2276 164.525C73.5078 158.34 81.8778 145.824 83.037 135.504C92.5646 133.232 101.201 128.34 107.195 123.804C110.499 121.305 111.15 116.601 108.651 113.298C106.152 109.995 101.448 109.343 98.1447 111.843C90.191 117.861 78.767 122.933 69.2335 121.574C64.7966 120.941 60.5281 118.902 56.769 114.362C52.8837 109.67 49.2576 101.943 47.1167 89.5471C46.4117 85.4654 42.5314 82.728 38.4497 83.433ZM88.0638 168.859C92.1863 168.457 95.8546 171.472 96.2571 175.595C96.6595 179.717 93.6438 183.386 89.5213 183.788C72.7263 185.428 64.3729 191.488 60.1944 197.385C56.7156 202.295 55.5687 207.88 55.6475 212.548C65.2365 215.867 72.1711 221.39 76.9019 227.926C83.8318 237.501 85.4834 248.488 84.8678 255.941C84.5268 260.069 80.9039 263.139 76.7758 262.798C72.6477 262.457 69.5777 258.834 69.9187 254.706C70.2943 250.159 69.22 242.896 64.7506 236.721C60.5153 230.869 52.6607 225.193 37.7949 224.31C33.66 224.065 30.507 220.514 30.7523 216.379C30.9977 212.244 34.5486 209.091 38.6835 209.337C39.3742 209.378 40.056 209.427 40.7291 209.486C41.1395 202.914 43.1433 195.504 47.9555 188.713C55.2004 178.489 67.9845 170.819 88.0638 168.859Z" fill="url(#paint0_linear_10_36)"/>
<defs>
<linearGradient id="paint0_linear_10_36" x1="122.004" y1="0" x2="122.004" y2="277.737" gradientUnits="userSpaceOnUse">
<stop stop-color="#5DE2FF"/>
<stop offset="1" stop-color="#0096FF"/>
</linearGradient>
</defs>
</svg>
